<svg width="38" height="38" viewBox="0 0 38 38" fill="none" xmlns="http://www.w3.org/2000/svg">
<path d="M35.6667 27.2V32.2C35.6686 32.6642 35.5735 33.1236 35.3875 33.5489C35.2016 33.9742 34.9288 34.356 34.5868 34.6698C34.2448 34.9836 33.841 35.2225 33.4012 35.3712C32.9615 35.5199 32.4956 35.5751 32.0333 35.5333C26.9047 34.9761 21.9783 33.2236 17.65 30.4167C13.623 27.8578 10.2089 24.4436 7.65 20.4167C4.8333 16.0687 3.08041 11.1183 2.53333 5.96667C2.49168 5.50578 2.54646 5.04127 2.69417 4.60271C2.84188 4.16415 3.07928 3.76115 3.39128 3.41937C3.70327 3.07759 4.08301 2.80452 4.50632 2.61754C4.92963 2.43056 5.38723 2.33377 5.85 2.33333H10.85C11.6588 2.32537 12.443 2.6118 13.0563 3.13922C13.6696 3.66665 14.0701 4.39908 14.1833 5.2C14.3944 6.80011 14.7858 8.37121 15.35 9.88333C15.5742 10.4799 15.6228 11.1282 15.4898 11.7515C15.3569 12.3747 15.0481 12.9469 14.6 13.4L12.4833 15.5167C14.8559 19.6892 18.3108 23.1441 22.4833 25.5167L24.6 23.4C25.0531 22.9519 25.6253 22.6431 26.2485 22.5102C26.8718 22.3772 27.5201 22.4258 28.1167 22.65C29.6288 23.2143 31.1999 23.6056 32.8 23.8167C33.6096 23.9309 34.349 24.3387 34.8776 24.9625C35.4061 25.5863 35.6869 26.3826 35.6667 27.2Z" stroke="#1E1E1E" stroke-width="3.5" stroke-linecap="round" stroke-linejoin="round"/>
</svg>
